<svg xmlns="http://www.w3.org/2000/svg" width="303.593" height="61" viewBox="0 0 80.326 16.14"><path d="M14.689 15.848h2.706l2.122-7.907h-2.679zm0 0M28.565 15.848h2.706l2.122-7.907h-2.706zm0 0M42.466 15.848h2.68l2.097-7.907h-2.707zm0 0M26.044 10.647h2.707c.37-1.777-.77-2.678-3.423-2.678-3.078 0-5.147 1.511-5.863 4.085-.611 2.387.637 3.82 3.528 3.82 2.918 0 4.642-.901 5.36-2.945h-2.707c-.398.902-1.087 1.353-2.042 1.353-1.3 0-1.831-.796-1.434-2.307.425-1.566 1.434-2.442 2.734-2.442.848 0 1.22.372 1.14 1.114M39.947 10.647h2.706c.371-1.777-.797-2.678-3.45-2.678-3.052 0-5.147 1.511-5.836 4.085-.637 2.387.61 3.82 3.502 3.82s4.616-.901 5.359-2.945h-2.706c-.372.902-1.088 1.353-2.043 1.353-1.3 0-1.83-.796-1.407-2.307.399-1.566 1.407-2.442 2.706-2.442.85 0 1.248.372 1.169 1.114" fill="#004a7f"/><path d="M4.262 3.565c3.608-3.582 7.985-4.512 9.737-2.07 1.752 2.44.212 7.375-3.396 10.957C6.995 16.06 2.617 16.99.839 14.521-.885 12.054.655 7.145 4.262 3.565" fill="#f06321"/><path d="M6.65 1.654c-.398.291-.796.636-1.193 1.009-3.158 3.13-4.485 7.427-2.92 9.577 1.619 2.148 5.492 1.352 8.73-1.805 1.75-1.697 2.918-3.661 3.395-5.491.133-1.353-.053-2.548-.663-3.45-1.379-1.909-4.35-1.751-7.349.16" fill="#ae282e"/><path d="M11.213 2.052v.08c-.026.45-.292 1.007-.77 1.484-.715.69-1.67.955-2.07.559-.45-.425-.183-1.354.533-2.097.742-.716 1.697-.955 2.095-.53a.68.68 0 01.212.504M8.455 14.229c-1.699 1.273-3.45 1.91-5.148 1.646.716.026 1.3-.77 1.778-1.832.478-1.087.743-2.095.982-3.051.344-1.512.37-2.573.185-2.811-.292-.373-.928-.292-1.672.132-.371.213-.849.08-.29-.61.583-.69 2.837-2.335 3.633-2.6.903-.239 1.91.106 1.566 1.087-.24.716-3.37 8.888-1.034 8.039" fill="#fff"/><path d="M51.302 14.6l.61-2.28h1.485V11.1h-1.14l.53-1.938h.61V7.967H51.38l-2.095 7.908h4.112V14.6zm2.095-2.28h.292c1.354 0 1.99.238 1.725 1.166-.212.823-.875 1.114-2.017 1.114v1.275c1.115 0 1.938-.106 2.76-.665a2.665 2.665 0 001.115-1.564c.29-1.088-.187-1.832-1.434-1.99 1.167-.212 1.911-.823 2.149-1.778.212-.716.026-1.246-.478-1.591-.424-.292-1.14-.32-2.095-.32h-2.017v1.195h1.036c1.273 0 1.856.16 1.67.955-.238.769-.928.982-2.227.982h-.479zm0 0M60.826 10.33v.98a.922.922 0 00-.478.559h-1.59c.263-.77.98-1.301 2.068-1.539m0 4.643a2.26 2.26 0 01-.61.08c-.716 0-1.035-.294-.875-.824.159-.61.636-.822 1.485-.902V12.4c-1.831.133-2.84.61-3.158 1.803-.291 1.088.4 1.805 1.832 1.805.477 0 .928-.08 1.326-.238zm1.54-1.646l-.027.08c-.212.822-.77 1.38-1.513 1.566v.796c.398-.16.742-.372 1.06-.663l-.132.769h1.593c.08-.373.159-.797.265-1.222l.61-2.227a2.02 2.02 0 00.08-.557v-.266c-.054-.903-.823-1.38-2.255-1.38-.452 0-.85.053-1.221.107v.98c.239-.131.53-.184.903-.184.82 0 1.14.37.9 1.167l-.025.08h-.85c-.317 0-.636.026-.928.026v.928zm0 0M64.779 15.875h1.619l.77-2.84c.264-1.007 1.193-1.725 2.174-1.725.955 0 1.3.559.983 1.672l-.77 2.893h1.618l.902-3.37c.371-1.432-.345-2.282-1.936-2.282-1.036 0-1.858.371-2.574 1.114l.186-.981h-1.618c-.16.875-.265 1.406-.32 1.619zm0 0M72.605 15.875h1.593l.796-2.972 2.15 2.972h2.2l-2.44-3.158 3.29-2.361H78.15L75.1 12.558l1.22-4.59h-1.591zm0 0" fill="#004a7f"/></svg>