<svg xmlns="http://www.w3.org/2000/svg" width="1588" height="489"><g fill-rule="evenodd"><path fill="#808285" d="M776 204.4c-9.9 0-20.6-1.7-29.7-5.8-9.9-4.1-18.2-9.1-26.4-17.3-6.6-6.6-13.2-15.7-16.5-24.8-4.2-9-5.8-18.9-5.8-29.7 0-10.7 1.6-19.8 5.8-29.7q6.6-14 16.5-24.7c8.2-7.4 16.5-12.4 26.4-16.5 9.1-4.1 19.8-5.8 29.7-5.8h.8c10.7 0 19.8 1.7 29.7 5.8 9.1 4.1 18.2 9.1 25.6 16.5 7.4 8.2 13.2 16.5 17.4 25.6 3.3 9 5.7 18.9 5.7 28.8 0 10.8-2.4 20.7-5.7 29.7q-5.8 14.9-17.4 24.8c-7.4 8.2-16.5 13.2-25.6 17.3-9.9 4.1-19.8 5.8-29.7 5.8zM744.7 93.8c-8.3 8.3-12.4 19.8-12.4 33q0 19.8 12.4 34.7c9 9.1 18.9 14 32.1 14 11.6 0 22.3-5 30.6-14q13.2-14 13.2-34.7c0-13.2-4.1-24.7-13.2-33-8.3-9.9-19-14-30.6-14-13.2 0-23.1 4.1-32.1 14m-114 104.8V83.9H519.3V55.1h111.4V1.4h33.1v53.7h24.7v28.8h-24.7v114.7zM913.8 77.3c3.3-9 8.2-15.6 14-20.6 5.8-4.1 12.4-6.6 21.5-6.6 4.1 0 9 0 14 1.7 4.1 1.6 9.1 2.4 13.2 4.9l-12.4 28.1c-3.3-2.5-5.8-4.2-9.1-4.2-3.3-1.6-7.4-2.4-10.7-2.4-10.7 0-19 4.9-23.9 13.2-4.2 9-6.6 23.9-6.6 43.7v63.5h-33V55.1h33zm155.1 6.6c-2.4-2.5-5.7-3.3-9-4.2-3.3-1.6-6.6-1.6-10.8-1.6-11.5 0-18.9 4.1-23.1 13.2q-7.4 13.2-7.4 43.7v62.7h-33V54.2h33v23.1c3.3-9.9 7.4-16.5 14-21.5 5.8-4.1 13.2-6.6 21.5-6.6q6.6 0 13.2 1.7c4.9 1.6 9.1 2.4 13.2 4.9h.8l-.8 1.7zm10.7 42V116c2.5-17.3 9.1-33 21.5-44.5 14-14.9 32.2-22.3 53.6-22.3h.9c22.3 0 40.4 6.6 53.6 19.8q19 20.6 19 55.3v6.6h-114.7c.8 13.2 4.9 23.9 12.4 31.3q9.9 11.6 28 11.6h1.7v29.7h-.9c-23.1 0-41.2-6.6-54.4-20.6-11.6-12.4-18.2-26.4-20.7-45.4zm49.6-40.4c-5.8 5-10.8 13.2-13.3 23.1h78.5c-.9-9.9-5-18.1-11.6-23.1-6.6-5.8-15.7-8.2-27.2-8.2-10.8 0-19.8 2.4-26.4 8.2m305.3 112.2V83h-24.7V54.2h24.7V.5h32.2v53.7h120.5V83h-120.5v114.7zm-180.7 0V54.2h31.3v23.1c5.8-9.1 13.2-16.5 22.3-21.5 9.1-4.1 19.8-6.6 32.2-6.6q16.1 0 27.3 5c8.2 4.1 14 9 18.1 14.8 2.5 4.1 4.1 9.1 5.8 14 .8 5 .8 14.9.8 27.3v87.4h-33v-74.2c0-18.2-1.6-30.6-6.6-37.2-4.1-6.6-12.4-9-23.9-9-7.5 0-14.9 1.6-21.5 4.1-4.9 3.3-10.7 6.6-13.2 12.4-3.3 2.4-5 7.4-5.8 13.2-.8 4.9-.8 14-.8 25.5v65.2zm-98.2 5.8v-29.7c9.9-.8 18.1-2.5 25.6-6.6 6.6-5 13.2-11.6 18.1-22.3l28.1 16.5c-8.3 14-19 24.8-30.6 31.4-11.5 7.4-25.5 10.7-41.2 10.7M662 488.1h-31.4V383.3H714q21.5 0 28.9 7.4 7.4 8.3 7.4 22.3v8.3q0 14.8-7.4 23.1-7.4 7.4-28.9 7.4h-52zm37.1-60.2q12.4 0 16.5-4.2 3.3-3.3 3.3-5.7 0-3.3-3.3-6.6-4.1-4.2-16.5-4.2H662v20.7zm214.6 52.8q-7.4 7.4-28.9 7.4h-46.2q-20.7 0-28.9-7.4-8.3-7.5-8.3-23.1V413q0-14.8 8.3-22.3 8.2-7.4 28.9-7.4h46.2q21.5 0 28.9 7.4 8.2 8.3 8.2 22.3v44.6q0 14.8-8.2 23.1m-23.9-57q0-9-3.3-12.3-3.3-4.2-16.6-4.2h-17.3q-11.5 0-15.7 4.2-4.1 4.1-4.1 12.3v24q0 8.2 4.1 12.3 4.2 4.2 15.7 4.2h17.3q13.3 0 16.6-4.2 3.3-4.1 3.3-12.3zm120.5 64.3q-21.5 0-29.8-7.4-8.2-7.4-8.2-22.3v-75.1h32.2v64.4q0 8.2 4.1 12.4 3.3 4.1 14.9 4.1h9l.9-80.9h31.3v80.9h10.8q12.3 0 15.7-3.3 4.1-4.1 4.1-13.2v-64.4h31.3v75.1q0 14-7.4 22.3-8.2 7.4-29.7 7.4zm199.7-40.4q0 8.2 4.2 12.4 4.1 4.1 15.7 4.1h68.5V488h-82.6q-21.4 0-29.7-7.4-7.4-7.4-7.4-22.3v-44.5q0-15.7 7.4-23.1 8.3-7.5 29.7-7.5h82.6v24h-68.5q-11.6 0-15.7 4.1-4.2 4.9-4.2 12.4h88.4v23.9zm261.6 40.4h-35.5l-34.6-36.3h-19.9V488h-31.3V383.2h83.3q21.5 0 28.9 7.5 7.5 8.2 7.5 23.1v8.2q0 14.9-7.5 22.3-7.4 7.4-21.4 7.4h-4.2zm-52.8-59.4q12.4 0 15.7-4.1t3.3-6.6-3.3-6.6-15.7-4.1h-38v21.4z"/><path fill="#f99d1c" d="M629.9 277.8H1466v26.4H629.9zM488.8 105.4v278L383.9 488.2H105.8L1 383.4v-278L105.8.6h278.1zm-198.1 278H384V291h-93.3zm-184.8 0h92.4V291h-92.4zM384 106.2h-93.3v92.4h-92.4v-92.4h-92.4v92.4h92.4V291h92.4v-92.4H384z"/></g></svg>