<svg xmlns="http://www.w3.org/2000/svg" viewBox="0 0 602.254 94.302" height="100.589" width="642.405"><path d="M0 0h193.781l-11.44 5.952-.022 40.1-19.207 35.89 7.324 12.36L0 0" fill="#ed1c24"/><path d="M465.769 14.38h-.228l-10.46 19.39h20.775l-10.087-19.39M448.97 45.014l-4.586 10.372H420.86L449.225.17h31.659l29.123 55.215h-23.648l-4.507-10.372h-32.88M316.922 14.38h-.228l-10.46 19.39h20.775l-10.087-19.39m-16.798 30.634l-4.586 10.372h-23.533L300.37.17h31.663l29.123 55.215h-23.648l-4.507-10.372h-32.877M552.305.175h21.353l-22.203 22.71L579.15 55.39h-22.89L527.4 22.947l-.175 8.497V55.39h-17.218V.175h17.218v22.772h.175L552.305.175M584.77 55.39h17.484V.17H584.77v55.22zM419.69 12.869V.175h-58.359v11.638h32.272l-31.965 30.432V55.39h58.477V44.273H388.36l31.33-31.404M286.069 0h-22.356L249.04 19.456 234.376 0h-22.352l28.15 37.292V55.39h17.32V37.292L286.068 0" fill="#231f20"/></svg>